<svg width="65" height="62" viewBox="0 0 65 62" fill="none" xmlns="http://www.w3.org/2000/svg">
<rect x="0.681532" y="0.680556" width="69.6389" height="69.6389" rx="34.8194" stroke="#4AC97E" stroke-width="0.638889"/>
<path fill-rule="evenodd" clip-rule="evenodd" d="M15.2236 35.5C15.2236 24.4543 24.1779 15.5 35.2236 15.5C46.2693 15.5 55.2236 24.4543 55.2236 35.5C55.2236 46.5457 46.2693 55.5 35.2236 55.5C24.1779 55.5 15.2236 46.5457 15.2236 35.5ZM44.6378 32.9142C45.4189 32.1332 45.4189 30.8668 44.6378 30.0858C43.8568 29.3047 42.5905 29.3047 41.8094 30.0858L33.2236 38.6716L28.6378 34.0858C27.8568 33.3047 26.5905 33.3047 25.8094 34.0858C25.0284 34.8668 25.0284 36.1332 25.8094 36.9142L30.3952 41.5C31.9573 43.0621 34.49 43.0621 36.0521 41.5L44.6378 32.9142Z" fill="#4AC97E"/>
</svg>
