<svg width="20" height="21" viewBox="0 0 20 21" fill="none" xmlns="http://www.w3.org/2000/svg">
<path d="M18.79 5.03068L10.54 0.513805C10.3744 0.423214 10.1887 0.375732 10 0.375732C9.81127 0.375732 9.62557 0.423214 9.46 0.513805L1.21 5.03068C1.03302 5.12752 0.885332 5.27016 0.782411 5.44368C0.67949 5.61719 0.625121 5.81519 0.625 6.01693V14.9832C0.625121 15.1849 0.67949 15.3829 0.782411 15.5564C0.885332 15.7299 1.03302 15.8726 1.21 15.9694L9.46 20.4863C9.62543 20.5773 9.81118 20.625 10 20.625C10.1888 20.625 10.3746 20.5773 10.54 20.4863L18.79 15.9694C18.967 15.8726 19.1147 15.7299 19.2176 15.5564C19.3205 15.3829 19.3749 15.1849 19.375 14.9832V6.01693C19.3749 5.81519 19.3205 5.61719 19.2176 5.44368C19.1147 5.27016 18.967 5.12752 18.79 5.03068ZM10 10.0726L1.78094 5.57256L5.79437 3.37506L9.82 5.57818C9.87519 5.60838 9.93709 5.62421 10 5.62421C10.0629 5.62421 10.1248 5.60838 10.18 5.57818L14.2056 3.37506L18.2191 5.57162L10 10.0726ZM9.82 1.17193C9.87502 1.14122 9.93699 1.1251 10 1.1251C10.063 1.1251 10.125 1.14122 10.18 1.17193L13.4247 2.95318L10 4.82256L6.57531 2.94756L9.82 1.17193ZM1.375 14.9832V10.9191L5.125 12.9722V17.2585L1.57 15.3122C1.51096 15.2799 1.4617 15.2323 1.42739 15.1744C1.39308 15.1165 1.37498 15.0505 1.375 14.9832ZM5.875 17.6691V12.7501C5.87502 12.6828 5.85692 12.6167 5.82261 12.5588C5.7883 12.5009 5.73904 12.4533 5.68 12.421L1.375 10.0641V6.20537L9.625 10.7222V19.7222L5.875 17.6691ZM10.375 19.7213V10.7213L18.625 6.20443V10.0632L14.32 12.4201C14.2608 12.4524 14.2115 12.5002 14.1772 12.5583C14.1428 12.6163 14.1248 12.6826 14.125 12.7501V17.6691L10.375 19.7213ZM18.43 15.3151L14.875 17.2585V12.9722L18.625 10.9191V14.9832C18.625 15.0505 18.6069 15.1165 18.5726 15.1744C18.5383 15.2323 18.489 15.2799 18.43 15.3122V15.3151Z" fill="white"/>
</svg>
