<svg width="20" height="19" viewBox="0 0 20 19" fill="none" xmlns="http://www.w3.org/2000/svg">
<path d="M19.3122 6.53123L10.3122 0.53123C10.2198 0.469558 10.1111 0.436646 10 0.436646C9.88888 0.436646 9.78025 0.469558 9.68781 0.53123L0.687813 6.53123C0.610692 6.58268 0.547485 6.6524 0.503814 6.73418C0.460143 6.81596 0.437363 6.90727 0.437501 6.99998V16.75C0.437501 17.0981 0.575782 17.4319 0.821923 17.6781C1.06806 17.9242 1.4019 18.0625 1.75 18.0625H18.25C18.5981 18.0625 18.9319 17.9242 19.1781 17.6781C19.4242 17.4319 19.5625 17.0981 19.5625 16.75V6.99998C19.5626 6.90727 19.5399 6.81596 19.4962 6.73418C19.4525 6.6524 19.3893 6.58268 19.3122 6.53123ZM10 1.67592L18.0091 7.01967L11.4559 11.6875H8.54406L1.99094 7.01592L10 1.67592ZM18.25 16.9375H1.75C1.70027 16.9375 1.65258 16.9177 1.61742 16.8826C1.58225 16.8474 1.5625 16.7997 1.5625 16.75V8.09217L8.03688 12.7084C8.1326 12.776 8.24688 12.8124 8.36406 12.8125H11.6359C11.7531 12.8124 11.8674 12.776 11.9631 12.7084L18.4375 8.09217V16.75C18.4375 16.7997 18.4177 16.8474 18.3826 16.8826C18.3474 16.9177 18.2997 16.9375 18.25 16.9375Z" fill="white"/>
</svg>
