<svg width="20" height="20" viewBox="0 0 20 20" fill="none" xmlns="http://www.w3.org/2000/svg">
<path d="M1 14V17C1 18.1046 1.89543 19 3 19H17C18.1046 19 19 18.1046 19 17V14M1 14V3C1 1.89543 1.89543 1 3 1H17C18.1046 1 19 1.89543 19 3V14M1 14L5.58579 9.41421C6.36683 8.63317 7.63317 8.63316 8.41421 9.41421L12 13M15 16L12 13M12 13L13.5858 11.4142C14.3668 10.6332 15.6332 10.6332 16.4142 11.4142L19 14M16 5.5C16 6.32843 15.3284 7 14.5 7C13.6716 7 13 6.32843 13 5.5C13 4.67157 13.6716 4 14.5 4C15.3284 4 16 4.67157 16 5.5Z" stroke="white" stroke-linecap="round" stroke-linejoin="round"/>
</svg>
