<svg width="24" height="25" viewBox="0 0 24 25" fill="none" xmlns="http://www.w3.org/2000/svg">
<g clip-path="url(#clip0_2349_17536)">
<path d="M12 16.25C14.0711 16.25 15.75 14.5711 15.75 12.5C15.75 10.4289 14.0711 8.75 12 8.75C9.92893 8.75 8.25 10.4289 8.25 12.5C8.25 14.5711 9.92893 16.25 12 16.25Z" stroke="white" stroke-linecap="round" stroke-linejoin="round"/>
<path d="M16.5 3.5H7.5C5.01472 3.5 3 5.51472 3 8V17C3 19.4853 5.01472 21.5 7.5 21.5H16.5C18.9853 21.5 21 19.4853 21 17V8C21 5.51472 18.9853 3.5 16.5 3.5Z" stroke="white" stroke-linecap="round" stroke-linejoin="round"/>
<path d="M16.875 8.5625C17.3928 8.5625 17.8125 8.14277 17.8125 7.625C17.8125 7.10723 17.3928 6.6875 16.875 6.6875C16.3572 6.6875 15.9375 7.10723 15.9375 7.625C15.9375 8.14277 16.3572 8.5625 16.875 8.5625Z" fill="white"/>
</g>
<defs>
<clipPath id="clip0_2349_17536">
<rect width="24" height="24" fill="white" transform="translate(0 0.5)"/>
</clipPath>
</defs>
</svg>
