<svg width="1440" height="383" viewBox="0 0 1440 383" fill="none" xmlns="http://www.w3.org/2000/svg">
<g clip-path="url(#clip0_2127_34924)">
<g filter="url(#filter0_f_2127_34924)">
<path d="M1467 359V2C1467 2 1009.98 127.913 709.528 127.913C409.079 127.913 -47.9439 2 -47.9439 2V359C-47.9439 359 409.433 238.025 709.528 238.025C1009.62 238.025 1467 359 1467 359Z" fill="url(#paint0_linear_2127_34924)"/>
</g>
<g style="mix-blend-mode:overlay">
<path d="M1489 357V0C1489 0 1031.98 125.913 731.528 125.913C431.079 125.913 -25.9439 0 -25.9439 0V357C-25.9439 357 431.433 236.025 731.528 236.025C1031.62 236.025 1489 357 1489 357Z" fill="url(#paint1_linear_2127_34924)" fill-opacity="0.42"/>
</g>
<g style="mix-blend-mode:hard-light" filter="url(#filter1_f_2127_34924)">
<circle cx="709" cy="180" r="78" fill="#EA9FFF"/>
</g>
</g>
<defs>
<filter id="filter0_f_2127_34924" x="-104.144" y="-54.2" width="1627.34" height="469.4" filterUnits="userSpaceOnUse" color-interpolation-filters="sRGB">
<feFlood flood-opacity="0" result="BackgroundImageFix"/>
<feBlend mode="normal" in="SourceGraphic" in2="BackgroundImageFix" result="shape"/>
<feGaussianBlur stdDeviation="28.1" result="effect1_foregroundBlur_2127_34924"/>
</filter>
<filter id="filter1_f_2127_34924" x="518.6" y="-10.4" width="380.8" height="380.8" filterUnits="userSpaceOnUse" color-interpolation-filters="sRGB">
<feFlood flood-opacity="0" result="BackgroundImageFix"/>
<feBlend mode="normal" in="SourceGraphic" in2="BackgroundImageFix" result="shape"/>
<feGaussianBlur stdDeviation="56.2" result="effect1_foregroundBlur_2127_34924"/>
</filter>
<linearGradient id="paint0_linear_2127_34924" x1="-10" y1="180.5" x2="1429" y2="180.5" gradientUnits="userSpaceOnUse">
<stop/>
<stop offset="0.5" stop-color="#C63BEE"/>
<stop offset="1"/>
</linearGradient>
<linearGradient id="paint1_linear_2127_34924" x1="12" y1="178.5" x2="1451" y2="178.5" gradientUnits="userSpaceOnUse">
<stop/>
<stop offset="0.5" stop-color="white"/>
<stop offset="1"/>
</linearGradient>
<clipPath id="clip0_2127_34924">
<rect width="1440" height="383" fill="white"/>
</clipPath>
</defs>
</svg>
