<svg width="20" height="21" viewBox="0 0 20 21" fill="none" xmlns="http://www.w3.org/2000/svg">
<path d="M10 0.75C4.624 0.75 0.25 5.124 0.25 10.5C0.25 15.876 4.624 20.25 10 20.25C15.376 20.25 19.75 15.876 19.75 10.5C19.75 5.124 15.376 0.75 10 0.75ZM10 2.25C14.5487 2.25 18.25 5.95125 18.25 10.5C18.25 15.0487 14.5487 18.75 10 18.75C5.45125 18.75 1.75 15.0487 1.75 10.5C1.75 5.95125 5.45125 2.25 10 2.25ZM5.54125 6.876L4.70875 8.124L6.02275 9L4.70875 9.876L5.54125 11.124L8.72725 9L5.54125 6.876ZM14.4587 6.876L11.2728 9L14.4587 11.124L15.2913 9.876L13.9772 9L15.2913 8.124L14.4587 6.876ZM4.75 12.75C4.75 12.75 5.95375 16.5 10 16.5C14.0463 16.5 15.25 12.75 15.25 12.75H4.75Z" fill="white"/>
</svg>
