<svg width="57" height="56" viewBox="0 0 57 56" fill="none" xmlns="http://www.w3.org/2000/svg">
<g clip-path="url(#clip0_2127_35382)">
<path d="M37.417 14C37.417 9.16751 33.4995 5.25 28.667 5.25C23.8345 5.25 19.917 9.16751 19.917 14V28C19.917 32.8325 23.8345 36.75 28.667 36.75C33.4995 36.75 37.417 32.8325 37.417 28V14Z" stroke="white" stroke-width="1.5" stroke-linecap="round" stroke-linejoin="round"/>
<path d="M28.667 43.75V52.5" stroke="white" stroke-width="1.5" stroke-linecap="round" stroke-linejoin="round"/>
<path d="M44.417 28C44.417 32.1772 42.7576 36.1832 39.8039 39.1369C36.8502 42.0906 32.8442 43.75 28.667 43.75C24.4898 43.75 20.4838 42.0906 17.5301 39.1369C14.5764 36.1832 12.917 32.1772 12.917 28" stroke="white" stroke-width="1.5" stroke-linecap="round" stroke-linejoin="round"/>
</g>
<defs>
<clipPath id="clip0_2127_35382">
<rect width="56" height="56" fill="white" transform="translate(0.666992)"/>
</clipPath>
</defs>
</svg>
