<svg width="66" height="62" viewBox="0 0 66 62" fill="none" xmlns="http://www.w3.org/2000/svg">
<rect x="0.682509" y="0.680556" width="69.6389" height="69.6389" rx="34.8194" stroke="#D0302F" stroke-width="0.638889"/>
<path fill-rule="evenodd" clip-rule="evenodd" d="M15.2246 35.5C15.2246 24.4543 24.1789 15.5 35.2246 15.5C46.2703 15.5 55.2246 24.4543 55.2246 35.5C55.2246 46.5457 46.2703 55.5 35.2246 55.5C24.1789 55.5 15.2246 46.5457 15.2246 35.5ZM30.6388 28.0858C29.8578 27.3047 28.5914 27.3047 27.8104 28.0858C27.0293 28.8668 27.0293 30.1332 27.8104 30.9142L32.3962 35.5L27.8104 40.0858C27.0293 40.8668 27.0293 42.1332 27.8104 42.9142C28.5914 43.6953 29.8578 43.6953 30.6388 42.9142L35.2246 38.3284L39.8104 42.9142C40.5914 43.6953 41.8578 43.6953 42.6388 42.9142C43.4199 42.1332 43.4199 40.8668 42.6388 40.0858L38.053 35.5L42.6388 30.9142C43.4199 30.1332 43.4199 28.8668 42.6388 28.0858C41.8578 27.3047 40.5914 27.3047 39.8104 28.0858L35.2246 32.6716L30.6388 28.0858Z" fill="#D0302F"/>
</svg>
