<svg width="66" height="62" viewBox="0 0 66 62" fill="none" xmlns="http://www.w3.org/2000/svg">
<rect x="0.678602" y="0.680556" width="69.6389" height="69.6389" rx="34.8194" stroke="#FFD147" stroke-width="0.638889"/>
<path d="M35.2207 15.5C46.2664 15.5 55.2207 24.4543 55.2207 35.5C55.2207 46.5457 46.2664 55.5 35.2207 55.5C24.175 55.5 15.2207 46.5457 15.2207 35.5C15.2207 24.4543 24.175 15.5 35.2207 15.5ZM35.2207 25.5C29.6979 25.5 25.2207 29.9772 25.2207 35.5C25.2207 41.0228 29.6979 45.5 35.2207 45.5C40.7436 45.5 45.2207 41.0228 45.2207 35.5C45.2207 34.9477 44.773 34.5 44.2207 34.5C43.6684 34.5 43.2207 34.9477 43.2207 35.5C43.2207 39.9183 39.639 43.5 35.2207 43.5C30.8024 43.5 27.2207 39.9183 27.2207 35.5C27.2207 31.0817 30.8024 27.5 35.2207 27.5C37.2493 27.5 39.099 28.2552 40.5098 29.5H39.7207C39.1684 29.5 38.7207 29.9477 38.7207 30.5C38.7207 31.0523 39.1684 31.5 39.7207 31.5H42.4707C43.1611 31.5 43.7207 30.9404 43.7207 30.25V27.5C43.7207 26.9477 43.273 26.5 42.7207 26.5C42.1684 26.5 41.7207 26.9477 41.7207 27.5V27.9033C39.9731 26.4068 37.7025 25.5 35.2207 25.5ZM35.2207 30.5C34.6684 30.5 34.2207 30.9477 34.2207 31.5V34.6719C34.2206 34.9039 34.14 35.1278 33.9941 35.3057L33.9277 35.3789L32.5137 36.793C32.1231 37.1835 32.1231 37.8165 32.5137 38.207C32.9042 38.5976 33.5372 38.5976 33.9277 38.207L35.3418 36.793L35.541 36.5732C35.9786 36.0394 36.2206 35.3681 36.2207 34.6719V31.5C36.2207 30.9477 35.773 30.5 35.2207 30.5Z" fill="#FFD147"/>
</svg>
